<svg viewBox="0 0 18 19" xmlns="http://www.w3.org/2000/svg" xmlns:xlink="http://www.w3.org/1999/xlink" width="18.000000" height="19.000000" fill="none">
	<rect id="profile 1" width="18.000000" height="19.000000" x="0.000000" y="0.000000" fill="rgb(255,255,255)" fill-opacity="0" />
	<path id="Vector" d="M9 8.70865C9.74167 8.70865 10.4667 8.47654 11.0834 8.04152C11.7001 7.60661 12.1807 6.9884 12.4645 6.26511C12.7483 5.54182 12.8227 4.74594 12.6779 3.97809C12.5332 3.21025 12.1761 2.50494 11.6516 1.95136C11.1272 1.39778 10.459 1.02078 9.73162 0.868054C9.00412 0.715318 8.25015 0.793709 7.56495 1.0933C6.87971 1.3929 6.29404 1.90025 5.88199 2.55119C5.46993 3.20214 5.25 3.96744 5.25 4.75032C5.25119 5.79976 5.64666 6.80584 6.34966 7.5479C7.05267 8.28994 8.0058 8.70739 9 8.70865ZM9 2.37532C9.44497 2.37532 9.88005 2.51462 10.25 2.77558C10.6201 3.03655 10.9084 3.40747 11.0787 3.84145C11.249 4.27543 11.2936 4.75296 11.2068 5.21366C11.1199 5.67437 10.9057 6.09756 10.591 6.4297C10.2763 6.76185 9.8754 6.98805 9.43897 7.07969C9.00247 7.17133 8.55007 7.12429 8.13892 6.94454C7.72785 6.76478 7.37643 6.46037 7.12919 6.0698C6.88196 5.67924 6.75 5.22006 6.75 4.75032C6.75 4.12043 6.98705 3.51634 7.40901 3.07094C7.83097 2.62555 8.4033 2.37532 9 2.37532ZM2.25 17.417L2.25 14.2503C2.25119 13.2009 2.64666 12.1948 3.34966 11.4527C4.05267 10.7107 5.00581 10.2933 6 10.292L12 10.292C12.9942 10.2933 13.9473 10.7107 14.6503 11.4527C15.3533 12.1948 15.7488 13.2009 15.75 14.2503L15.75 17.417C15.75 17.6269 15.6709 17.8283 15.5303 17.9768C15.3897 18.1252 15.1989 18.2087 15 18.2087C14.8011 18.2087 14.6103 18.1252 14.4697 17.9768C14.329 17.8283 14.25 17.6269 14.25 17.417L14.25 14.2503C14.25 13.6205 14.0129 13.0163 13.591 12.571C13.169 12.1256 12.5967 11.8753 12 11.8753L6 11.8753C5.40326 11.8753 4.83097 12.1256 4.40901 12.571C3.98705 13.0163 3.75 13.6205 3.75 14.2503L3.75 17.417C3.75 17.6269 3.67098 17.8283 3.53033 17.9768C3.38968 18.1252 3.19891 18.2087 3 18.2087C2.80108 18.2087 2.61032 18.1252 2.46967 17.9768C2.32902 17.8283 2.25 17.6269 2.25 17.417Z" fill="rgb(255,255,255)" fill-rule="nonzero" />
</svg>
